<?xml version="1.0" encoding="utf-8"?>
<!-- Generator: Adobe Illustrator 16.0.0, SVG Export Plug-In . SVG Version: 6.00 Build 0)  -->
<!DOCTYPE svg PUBLIC "-//W3C//DTD SVG 1.1//EN" "http://www.w3.org/Graphics/SVG/1.1/DTD/svg11.dtd">
<svg version="1.1" id="Layer_1" xmlns="http://www.w3.org/2000/svg" xmlns:xlink="http://www.w3.org/1999/xlink" x="0px" y="0px"
	 width="1294.667px" height="363.009px" viewBox="0 0 1294.667 363.009" enable-background="new 0 0 1294.667 363.009"
	 xml:space="preserve">
<polygon display="none" fill="#39B54A" points="1059.01,-124.543 1103.908,-61.421 1168.996,-124.225 1183.981,-73.138 
	1191.997,-74.344 1194.644,-37.458 1237.07,-42.848 1218.3,5.157 1256.46,36.832 1288.386,55.231 1209.491,100.48 1235.047,168.511 
	1182.646,157.454 1164.98,223.457 1107.43,166.736 1104.13,166.654 1039.392,222.635 1021.218,144.868 962.189,146.251 
	962.189,142.721 990.613,91.457 924.541,40.22 1002.587,0.28 970.967,-65.106 1034.734,-56.771 "/>
<g>
	<path fill="#39B54A" d="M1168.788,196.584l-50.585-49.442l-57.621,47.245l-1.318-1.406l0.781-0.844l-1.34,0.104l-14.427-64.438
		l-49.353,0.462l-0.488-1.805l0.149-0.084l-0.515-0.513l24.531-44.254L962.124,38.05l0.477-0.834l-0.326-0.791l66.434-34.07
		l-28.211-55.931l0.98-1.393l55.295,6.892l21.293-56.193l1.698-0.211l36.381,52.225l56.37-51.74l1.575,0.429l13.182,43.016
		l4.883-1.105l0.113,0.492l0.657,0.394l0.405-0.04l2.938,29.211l34.61-3.406l0.088,0.89l0.907,0.419l-15.74,40.756l32.387,26.463
		l28.645,15.639l0.008,1.693l-68.592,38.104l21.688,58.616l-1.04,0.941l-0.075,0.336l-44-9.736l-14.756,57.018L1168.788,196.584z
		 M1100.881,127.511l66.817,65.305l-15.278-61.109L1100.881,127.511z M1154.452,131.872l15.028,60.103l20.468-79.1l-7.665,20.558
		l-0.982,0.623L1154.452,131.872z M1065.038,127.61l-4.386,63.875l48.993-52.707l-11.742-11.477L1065.038,127.61z M1046.255,127.785
		l12.883,57.549l3.96-57.708L1046.255,127.785z M1111.026,140.127l-40.629,43.712l46.415-38.054L1111.026,140.127z
		 M1188.345,126.776l39.273,19.205l-20.747-56.073l-10.491,5.829L1188.345,126.776z M1185.638,137.244l36.013,7.97l-33.798-16.528
		L1185.638,137.244z M1099.9,125.493l78.595,6.398l-54.833-47.126L1099.9,125.493z M1124.593,83.018l55.502,47.702l-8.007-61.93
		l-27.155-29.776L1124.593,83.018z M1174.386,71.498l7.45,57.604l12.608-33.818L1174.386,71.498z M1063.954,88.915l-65.342,37.384
		l97.557-0.915L1063.954,88.915z M1066.169,88.504l31.962,36.186l23.518-40.315L1066.169,88.504z M1024.272,75.369l-26.867,48.468
		l65.575-36.601l-17.272-50.54L1030.409,64.3l0.124,0.363L1024.272,75.369z M1174.596,68.755l20.992,24.884l51.271-54.569
		L1174.596,68.755z M1241.159,47.96l-40.664,43.28l72.968-40.538L1241.159,47.96z M1092.423,37.139l-26.581,49.453l56.931-4.239
		l20.396-44.132L1092.423,37.139z M1047.289,35.347l17.065,49.932l25.916-48.215L1047.289,35.347z M968.829,40.784l50.607,39.028
		l3.156-5.4l5.461-9.852L968.829,40.784z M1146.129,37.457l27.136,29.756l74.485-30.598L1178.4,15.401L1146.129,37.457z
		 M965.539,37.379l63.46,25.478l15.826-28.552l-9.887-19.6L965.539,37.379z M1242.844,46.165l29.369,2.493l-20.961-11.441
		L1242.844,46.165z M1092.563,35.209l50.609,1.08l-18.567-42.241l-53.062-25.297L1092.563,35.209z M1126.522-6.378l18.56,42.208
		l32.281-22.061l13.572-72.087L1126.522-6.378z M1047.27,33.412l43.244,1.727l-20.615-65.187L1047.27,33.412z M1179.998,13.869
		L1246.2,34.12l-48.307-39.468L1179.998,13.869z M1029.578,4.079l-55.572,28.5l60.052-19.62L1029.578,4.079z M1035.125,10.784
		l10.638,21.094l16.651-46.69l-58.639-36.555L1035.125,10.784z M1192.079-53.947l-12.273,65.188l16.992-18.249l-2.261-22.481
		l-0.474,0.046l-0.188-1.925l0.468-0.045L1192.079-53.947z M1211.752,3.478l2.808,2.295l10.071-26.079L1211.752,3.478z
		 M1198.724-7.165l11.503,9.398l19.029-35.137l-32.797,3.226L1198.724-7.165z M1106.857-40.392l18.755,32.263l62.912-50.726
		L1106.857-40.392z M1072.888-32.748l50.057,23.864l-18.064-31.063L1072.888-32.748z M1005.594-52.508l57.484,35.833l5.963-16.728
		l0.698-0.619l30.004-6.75L1005.594-52.508z M1074.574-45.857l30.462,3.798l9.674-8.88l-35.021-50.269L1074.574-45.857z
		 M1171.757-100.681l-63.074,57.897l55.597-12.572L1171.757-100.681z M1058.744-47.831l13.91,1.734l4.699-50.84L1058.744-47.831z
		 M1173.451-99.063l-7.138,43.249l19.065-4.312L1173.451-99.063z"/>
</g>
<g>
	<path fill="#00AEEF" d="M283.424,363.009l-65.755-64.269l-74.901,61.412l-1.715-1.828l1.017-1.094l-1.742,0.133l-18.755-83.761
		l-64.152,0.601l-0.636-2.346l0.194-0.11l-0.667-0.664l31.887-57.528l-73.417-56.621l0.621-1.087l-0.427-1.025l86.359-44.288
		L64.662,37.83l1.275-1.812l71.879,8.959l27.677-73.046l2.208-0.275l47.292,67.888l73.276-67.258l2.048,0.557l17.134,55.916
		l6.347-1.435l0.148,0.638l0.854,0.512l0.526-0.051l3.82,37.972l44.989-4.428l0.116,1.157l1.18,0.544l-20.461,52.979l42.1,34.4
		l37.235,20.328l0.01,2.2l-89.161,49.533l28.19,76.193l-1.351,1.226l-0.099,0.438l-57.196-12.658l-19.182,74.118L283.424,363.009z
		 M195.153,273.223l86.856,84.891l-19.861-79.435L195.153,273.223z M264.789,278.891l19.535,78.127l26.606-102.818l-9.964,26.722
		l-1.277,0.812L264.789,278.891z M148.559,273.352l-5.701,83.03l63.686-68.513l-15.264-14.918L148.559,273.352z M124.144,273.578
		l16.748,74.809l5.146-75.015L124.144,273.578z M208.34,289.625l-52.815,56.818l60.335-49.466L208.34,289.625z M308.848,272.27
		l51.052,24.963l-26.97-72.89l-13.638,7.578L308.848,272.27z M305.328,285.873l46.812,10.361l-43.932-21.485L305.328,285.873z
		 M193.878,270.601l102.166,8.316l-71.28-61.261L193.878,270.601z M225.976,215.387l72.148,62.006l-10.41-80.503l-35.298-38.705
		L225.976,215.387z M290.702,200.411l9.684,74.881l16.39-43.962L290.702,200.411z M147.15,223.052l-84.938,48.595l126.813-1.188
		L147.15,223.052z M150.031,222.521l41.546,47.035l30.572-52.405L150.031,222.521z M95.567,205.444l-34.923,63.004l85.241-47.579
		l-22.454-65.695l-19.887,35.882l0.162,0.472L95.567,205.444z M290.976,196.846l27.286,32.348l66.649-70.936L290.976,196.846z
		 M377.499,169.814l-52.859,56.259l94.851-52.695L377.499,169.814z M184.157,155.748l-34.553,64.283l74.004-5.51l26.513-57.367
		L184.157,155.748z M125.487,153.418l22.184,64.907l33.688-62.676L125.487,153.418z M23.497,160.485l65.784,50.733l4.103-7.021
		l7.099-12.807L23.497,160.485z M253.97,156.16l35.274,38.682l96.824-39.773l-90.148-27.577L253.97,156.16z M19.221,156.061
		l82.49,33.118l20.573-37.114l-12.851-25.479L19.221,156.061z M379.691,167.48l38.176,3.24l-27.247-14.874L379.691,167.48z
		 M184.341,153.238l65.785,1.403l-24.135-54.908L157.016,66.85L184.341,153.238z M228.482,99.182l24.126,54.866l41.963-28.677
		l17.642-93.706L228.482,99.182z M125.462,150.904l56.214,2.245l-26.799-84.736L125.462,150.904z M297.997,125.5l86.056,26.324
		l-62.796-51.305L297.997,125.5z M102.465,112.774l-72.238,37.048l78.061-25.504L102.465,112.774z M109.676,121.49l13.829,27.419
		l21.644-60.693L68.924,40.7L109.676,121.49z M313.699,37.345l-15.953,84.739l22.088-23.722l-2.938-29.224l-0.615,0.061
		l-0.247-2.501l0.608-0.059L313.699,37.345z M339.273,111.993l3.649,2.983l13.093-33.899L339.273,111.993z M322.339,98.157
		l14.952,12.217l24.737-45.675l-42.632,4.195L322.339,98.157z M202.919,54.965l24.38,41.939l81.779-65.938L202.919,54.965z
		 M158.765,64.902l65.07,31.02l-23.483-40.378L158.765,64.902z M71.289,39.216l74.723,46.58l7.751-21.744l0.908-0.806l39.003-8.773
		L71.289,39.216z M160.956,47.862l39.598,4.937l12.574-11.543l-45.524-65.344L160.956,47.862z M287.284-23.404l-81.991,75.261
		l72.271-16.34L287.284-23.404z M140.378,45.295l18.082,2.255l6.107-66.087L140.378,45.295z M289.485-21.301l-9.277,56.218
		l24.784-5.603L289.485-21.301z"/>
</g>
<text transform="matrix(1 0 0 1 388.0371 217)" font-family="'SquaresBold'" font-size="99">codefest</text>
<text transform="matrix(1 0 0 1 364.1279 133.6675)" font-family="'Code-Light'" font-size="97">Open science</text>
<text transform="matrix(1 0 0 1 546 271)" font-family="'Helvetica-Light'" font-size="25">September 2-4, 2014</text>
<g>
	<text transform="matrix(1 0 0 1 561 307.4512)" font-family="'Helvetica-Light'" font-size="25">Santa Barbara, CA</text>
</g>
</svg>
