<?xml version="1.0" encoding="utf-8"?>
<!-- Generator: Adobe Illustrator 16.0.0, SVG Export Plug-In . SVG Version: 6.00 Build 0)  -->
<!DOCTYPE svg PUBLIC "-//W3C//DTD SVG 1.1//EN" "http://www.w3.org/Graphics/SVG/1.1/DTD/svg11.dtd">
<svg version="1.1" id="Layer_1" xmlns="http://www.w3.org/2000/svg" xmlns:xlink="http://www.w3.org/1999/xlink" x="0px" y="0px"
	 width="1000px" height="300px" viewBox="0 0 1000 300" enable-background="new 0 0 1000 300" xml:space="preserve">
<g>
	<path fill="#5E52A3" d="M530.643,332.009l-65.756-64.269l-74.9,61.412l-1.715-1.828l1.017-1.094l-1.741,0.133l-18.756-83.761
		l-64.152,0.601l-0.635-2.346l0.193-0.11l-0.666-0.664l31.887-57.528L262,125.934l0.621-1.087l-0.428-1.025l86.359-44.288
		L311.881,6.83l1.274-1.812l71.879,8.959l27.677-73.046l2.208-0.275l47.292,67.888l73.276-67.258l2.048,0.557l17.134,55.916
		l6.347-1.435l0.148,0.638l0.854,0.512l0.526-0.051l3.82,37.972l44.989-4.428l0.115,1.157l1.18,0.544l-20.461,52.979l42.1,34.4
		l37.235,20.328l0.01,2.2l-89.161,49.533l28.19,76.193l-1.351,1.226l-0.1,0.438l-57.195-12.658l-19.182,74.118L530.643,332.009z
		 M442.372,242.223l86.856,84.891l-19.861-79.435L442.372,242.223z M512.008,247.891l19.535,78.127l26.605-102.818l-9.963,26.722
		l-1.277,0.812L512.008,247.891z M395.777,242.352l-5.7,83.03l63.687-68.513l-15.265-14.918L395.777,242.352z M371.362,242.578
		l16.748,74.809l5.146-75.015L371.362,242.578z M455.559,258.625l-52.814,56.818l60.335-49.466L455.559,258.625z M556.066,241.27
		l51.053,24.963l-26.971-72.89l-13.638,7.578L556.066,241.27z M552.547,254.873l46.812,10.361l-43.933-21.485L552.547,254.873z
		 M441.097,239.601l102.165,8.316l-71.279-61.261L441.097,239.601z M473.194,184.387l72.147,62.006l-10.409-80.503l-35.298-38.705
		L473.194,184.387z M537.92,169.411l9.684,74.881l16.391-43.962L537.92,169.411z M394.369,192.052l-84.938,48.595l126.812-1.188
		L394.369,192.052z M397.25,191.521l41.546,47.035l30.572-52.405L397.25,191.521z M342.786,174.444l-34.923,63.004l85.24-47.579
		l-22.453-65.695l-19.887,35.882l0.161,0.472L342.786,174.444z M538.194,165.846l27.286,32.348l66.648-70.936L538.194,165.846z
		 M624.718,138.814l-52.859,56.259l94.851-52.695L624.718,138.814z M431.376,124.748l-34.554,64.283l74.005-5.51l26.513-57.367
		L431.376,124.748z M372.706,122.418l22.184,64.907l33.688-62.676L372.706,122.418z M270.715,129.485l65.785,50.733l4.103-7.021
		l7.099-12.807L270.715,129.485z M501.189,125.16l35.273,38.682l96.824-39.773l-90.148-27.577L501.189,125.16z M266.439,125.061
		l82.49,33.118l20.572-37.114l-12.85-25.479L266.439,125.061z M626.91,136.48l38.176,3.24l-27.246-14.874L626.91,136.48z
		 M431.56,122.238l65.785,1.403l-24.136-54.908L404.234,35.85L431.56,122.238z M475.701,68.182l24.127,54.866l41.963-28.677
		l17.641-93.706L475.701,68.182z M372.682,119.904l56.214,2.244l-26.8-84.736L372.682,119.904z M545.215,94.5l86.057,26.323
		l-62.797-51.305L545.215,94.5z M349.684,81.773l-72.238,37.049l78.061-25.505L349.684,81.773z M356.895,90.49l13.829,27.42
		l21.644-60.693L316.143,9.7L356.895,90.49z M560.918,6.345l-15.953,84.739l22.088-23.722l-2.938-29.224l-0.614,0.061l-0.247-2.501
		l0.608-0.059L560.918,6.345z M586.492,80.993l3.649,2.983l13.093-33.899L586.492,80.993z M569.558,67.157l14.952,12.218
		l24.736-45.676l-42.632,4.195L569.558,67.157z M450.138,23.965l24.38,41.939l81.779-65.938L450.138,23.965z M405.983,33.902
		l65.069,31.02L447.57,24.544L405.983,33.902z M318.508,8.216l74.723,46.579l7.752-21.744l0.907-0.806l39.003-8.773L318.508,8.216z
		 M408.174,16.862l39.599,4.937l12.573-11.543l-45.523-65.344L408.174,16.862z M534.503-54.404l-81.991,75.261l72.271-16.34
		L534.503-54.404z M387.598,14.295l18.082,2.255l6.107-66.087L387.598,14.295z M536.704-52.301l-9.276,56.218l24.783-5.603
		L536.704-52.301z"/>
</g>
<g>
	<path fill="#00AEEF" d="M660.475,359.841l-36.15-35.333l-41.178,33.764l-0.943-1.006l0.559-0.603l-0.957,0.074l-10.311-46.049
		l-35.27,0.329l-0.35-1.289l0.107-0.061l-0.367-0.365l17.531-31.627l-40.363-31.129l0.342-0.597l-0.235-0.563l47.478-24.35
		l-20.161-39.97l0.701-0.996l39.517,4.926l15.216-40.158l1.214-0.152l25.999,37.323l40.285-36.977l1.126,0.307l9.419,30.741
		l3.49-0.789l0.081,0.351l0.47,0.281l0.29-0.028l2.1,20.876l24.733-2.435l0.063,0.636l0.649,0.301l-11.249,29.124l23.145,18.913
		l20.472,11.176l0.005,1.21l-49.019,27.231l15.498,41.889l-0.742,0.675l-0.055,0.24l-31.444-6.96l-10.545,40.749L660.475,359.841z
		 M611.946,310.479l47.751,46.67l-10.919-43.671L611.946,310.479z M650.229,313.596l10.74,42.951l14.627-56.525l-5.479,14.689
		l-0.701,0.446L650.229,313.596z M586.33,310.551l-3.135,45.646l35.014-37.666l-8.392-8.201L586.33,310.551z M572.906,310.674
		l9.208,41.128l2.829-41.241L572.906,310.674z M619.196,319.497l-29.037,31.236l33.171-27.194L619.196,319.497z M674.452,309.955
		l28.067,13.725l-14.829-40.074l-7.497,4.167L674.452,309.955z M672.517,317.434l25.736,5.696L674.1,311.318L672.517,317.434z
		 M611.245,309.038l56.168,4.571l-39.188-33.678L611.245,309.038z M628.892,278.684l39.664,34.089l-5.723-44.259l-19.406-21.278
		L628.892,278.684z M664.476,270.449l5.323,41.167l9.012-24.168L664.476,270.449z M585.556,282.896l-46.696,26.717l69.718-0.653
		L585.556,282.896z M587.14,282.604l22.84,25.858l16.809-28.811L587.14,282.604z M557.196,273.217l-19.199,34.638l46.862-26.157
		l-12.344-36.117l-10.934,19.727l0.089,0.26L557.196,273.217z M664.626,268.489l15.001,17.784l36.643-38.999L664.626,268.489z
		 M712.194,253.629l-29.062,30.929l52.147-28.971L712.194,253.629z M605.901,245.896l-18.997,35.341l40.686-3.029l14.576-31.539
		L605.901,245.896z M573.646,244.613l12.196,35.686l18.521-34.458L573.646,244.613z M517.574,248.5l36.167,27.892l2.255-3.859
		l3.902-7.042L517.574,248.5z M644.283,246.121l19.391,21.267l53.231-21.866l-49.561-15.161L644.283,246.121z M515.225,246.066
		l45.351,18.208l11.31-20.404l-7.064-14.007L515.225,246.066z M713.399,252.345l20.987,1.782l-14.978-8.177L713.399,252.345z
		 M606.002,244.516l36.167,0.771l-13.27-30.186l-37.921-18.079L606.002,244.516z M630.27,214.797l13.264,30.164l23.07-15.767
		l9.698-51.516L630.27,214.797z M573.633,243.232l30.905,1.233l-14.734-46.586L573.633,243.232z M668.486,229.266l47.312,14.472
		l-34.524-28.206L668.486,229.266z M560.989,222.27l-39.716,20.368l42.916-14.022L560.989,222.27z M564.953,227.061l7.604,15.076
		l11.898-33.367l-41.905-26.124L564.953,227.061z M677.119,180.802l-8.771,46.587l12.144-13.042l-1.615-16.066l-0.338,0.034
		l-0.136-1.377l0.333-0.032L677.119,180.802z M691.179,221.84l2.006,1.642l7.199-18.638L691.179,221.84z M681.868,214.233
		l8.221,6.717l13.6-25.111l-23.438,2.308L681.868,214.233z M616.215,190.488l13.404,23.057l44.96-36.251L616.215,190.488z
		 M591.941,195.951l35.772,17.054l-12.909-22.198L591.941,195.951z M543.85,181.83l41.08,25.607l4.261-11.954l0.499-0.442
		l21.443-4.824L543.85,181.83z M593.145,186.582l21.771,2.715l6.912-6.347L596.8,147.026L593.145,186.582z M662.597,147.403
		l-45.075,41.376l39.731-8.984L662.597,147.403z M581.832,185.172l9.941,1.24l3.358-36.333L581.832,185.172z M663.807,148.559
		l-5.099,30.908l13.625-3.082L663.807,148.559z"/>
</g>
</svg>
